<svg xmlns="http://www.w3.org/2000/svg" width="500" height="500" version="1.0" viewBox="0 0 375 375"><defs><clipPath id="a"><path d="M119 150.547h14V179h-14Zm0 0"/></clipPath><clipPath id="b"><path d="M108.422 166h35.25v31.797h-35.25Zm0 0"/></clipPath></defs><path fill="#fff" d="M67.85 185.424c0-1.426-.387-2.633-1.156-3.625a7.154 7.154 0 0 0-2.954-2.25 9.841 9.841 0 0 0-3.875-.766 9.36 9.36 0 0 0-3.656.735c-1.156.492-2.094 1.215-2.812 2.172-.711.949-1.063 2.156-1.063 3.625 0 2.054.727 3.652 2.188 4.797 1.468 1.148 3.21 1.718 5.234 1.718 2.25 0 4.16-.55 5.734-1.656 1.57-1.101 2.36-2.687 2.36-4.75Zm2.594 10.797a2.32 2.32 0 0 1-1.563-.563c-.43-.375-.68-.863-.75-1.468l-.11-1.016-1.109.844c-.73.562-1.761 1.125-3.093 1.687-1.325.563-2.922.844-4.797.844-2.25 0-4.258-.508-6.016-1.516a11.149 11.149 0 0 1-4.156-4.093c-1.012-1.727-1.516-3.66-1.516-5.797 0-2.363.586-4.36 1.766-5.985a11.486 11.486 0 0 1 4.484-3.734c1.82-.863 3.672-1.297 5.547-1.297 1.469 0 2.742.211 3.828.625 1.082.406 1.989.883 2.719 1.422.738.543 1.297 1.024 1.672 1.438l.562.609v-2.469c0-1.875-.808-3.304-2.422-4.297-1.617-1-3.773-1.5-6.468-1.5-.75 0-1.492.09-2.219.266-.73.168-1.492.25-2.281.25a2.906 2.906 0 0 1-1.766-.594c-.543-.394-.812-.969-.812-1.719 0-.488.144-.921.437-1.296.3-.375.695-.633 1.188-.782a13.53 13.53 0 0 1 3.546-.64 61.077 61.077 0 0 1 3.141-.094c4.164 0 7.297 1.078 9.39 3.234 2.102 2.157 3.157 4.961 3.157 8.407v16.859c0 .648-.234 1.203-.703 1.672-.469.469-1.024.703-1.656.703Zm27.758-30.875c.53 0 1.019.094 1.468.281.446.188.672.656.672 1.406 0 .98-.14 1.735-.422 2.266-.281.524-.87.781-1.765.781-1.844 0-3.32.45-4.422 1.344-1.106.899-1.903 2.125-2.39 3.688-.481 1.554-.72 3.34-.72 5.359v13.219c0 .71-.234 1.308-.703 1.797-.468.488-1.062.734-1.781.734-.71 0-1.309-.258-1.797-.766-.492-.507-.734-1.097-.734-1.765v-25.813c0-.633.21-1.156.64-1.562a2.196 2.196 0 0 1 1.563-.625c.562 0 1.047.199 1.453.593.414.387.64.86.672 1.422l.281 4.11a26.099 26.099 0 0 1 1.969-3.14 9.195 9.195 0 0 1 2.562-2.392c.989-.625 2.141-.937 3.454-.937Zm57.642 30.874c-.68 0-1.262-.245-1.75-.733a2.404 2.404 0 0 1-.719-1.75v-39.235c0-.676.239-1.254.72-1.734a2.388 2.388 0 0 1 1.75-.735 2.35 2.35 0 0 1 1.734.735c.488.48.734 1.058.734 1.734V170.3a83.974 83.974 0 0 1 3.969-2.719c1.144-.738 2.25-1.297 3.312-1.672 1.07-.375 2.242-.562 3.516-.562 2.062 0 3.719.465 4.969 1.39a7.806 7.806 0 0 1 2.734 3.563c.562 1.461.844 3.016.844 4.672v18.766c0 .68-.246 1.261-.735 1.75-.48.488-1.078.734-1.797.734-.68 0-1.261-.246-1.75-.734a2.404 2.404 0 0 1-.718-1.75v-17.422c0-1.008-.141-1.992-.422-2.953-.281-.957-.762-1.743-1.438-2.36-.68-.613-1.617-.922-2.812-.922-1.5 0-3.012.434-4.531 1.297-1.512.856-3.204 1.977-5.079 3.36v19c0 .68-.246 1.261-.734 1.75-.48.488-1.078.734-1.797.734Zm52.454-10.796c0-1.426-.386-2.633-1.156-3.625a7.154 7.154 0 0 0-2.953-2.25 9.841 9.841 0 0 0-3.875-.766 9.36 9.36 0 0 0-3.656.735c-1.157.492-2.094 1.215-2.813 2.172-.71.949-1.062 2.156-1.062 3.625 0 2.054.726 3.652 2.187 4.797 1.469 1.148 3.211 1.718 5.234 1.718 2.25 0 4.16-.55 5.735-1.656 1.57-1.101 2.36-2.687 2.36-4.75Zm2.594 10.797a2.32 2.32 0 0 1-1.563-.563c-.43-.375-.68-.863-.75-1.468l-.109-1.016-1.11.844c-.73.562-1.761 1.125-3.093 1.687-1.324.563-2.922.844-4.797.844-2.25 0-4.258-.508-6.016-1.516a11.149 11.149 0 0 1-4.156-4.093c-1.011-1.727-1.515-3.66-1.515-5.797 0-2.363.586-4.36 1.765-5.985a11.486 11.486 0 0 1 4.485-3.734c1.82-.863 3.671-1.297 5.546-1.297 1.47 0 2.743.211 3.829.625 1.082.406 1.988.883 2.718 1.422.739.543 1.297 1.024 1.672 1.438l.563.609v-2.469c0-1.875-.809-3.304-2.422-4.297-1.617-1-3.774-1.5-6.469-1.5-.75 0-1.492.09-2.219.266-.73.168-1.492.25-2.28.25a2.906 2.906 0 0 1-1.767-.594c-.542-.394-.812-.969-.812-1.719 0-.488.145-.921.437-1.296a2.35 2.35 0 0 1 1.188-.782 13.53 13.53 0 0 1 3.547-.64 61.077 61.077 0 0 1 3.14-.094c4.165 0 7.297 1.078 9.391 3.234 2.102 2.157 3.156 4.961 3.156 8.407v16.859c0 .648-.234 1.203-.703 1.672-.469.469-1.023.703-1.656.703Zm39.352-21.938v19.407c0 .71-.246 1.308-.735 1.797a2.455 2.455 0 0 1-1.797.734c-.68 0-1.261-.246-1.75-.734-.492-.489-.734-1.086-.734-1.797v-18.953c0-1.239-.34-2.32-1.016-3.25-.668-.938-1.882-1.407-3.64-1.407-1.469 0-2.86.387-4.172 1.157-1.305.761-3.008 1.964-5.11 3.609v18.844c0 .71-.246 1.308-.734 1.797-.48.488-1.078.734-1.797.734-.71 0-1.297-.258-1.765-.766a2.526 2.526 0 0 1-.703-1.765v-25.75c0-.633.222-1.164.671-1.594a2.18 2.18 0 0 1 1.579-.656c.593 0 1.101.199 1.53.593.438.387.677.883.72 1.485l.218 2.86c1.313-1.227 2.473-2.227 3.485-3 1.007-.77 2.03-1.345 3.062-1.72 1.031-.375 2.238-.562 3.625-.562 2.133 0 3.867.398 5.203 1.187 1.332.782 2.305 1.852 2.922 3.204.625 1.343.938 2.859.938 4.546Zm33.788 14a4.533 4.533 0 0 1 1-.953 2.23 2.23 0 0 1 1.297-.39c.75 0 1.359.246 1.828.734.468.48.703 1.024.703 1.625 0 .262-.047.484-.14.672-.095.187-.18.36-.25.516-1.126 1.836-2.743 3.304-4.845 4.406-2.093 1.101-4.418 1.656-6.968 1.656-2.844 0-5.344-.691-7.5-2.078-2.157-1.383-3.844-3.25-5.063-5.594-1.219-2.344-1.828-4.972-1.828-7.89 0-2.926.598-5.567 1.797-7.922 1.195-2.364 2.89-4.239 5.078-5.625 2.195-1.395 4.781-2.094 7.75-2.094 2.613 0 4.867.559 6.766 1.672 1.894 1.105 3.5 2.59 4.812 4.453.219.344.328.742.328 1.187 0 .637-.246 1.188-.734 1.657-.48.468-1.04.703-1.672.703-.492 0-.922-.14-1.297-.422a7.154 7.154 0 0 1-1.062-.984 15.43 15.43 0 0 0-1.5-1.594c-.586-.551-1.325-1.008-2.22-1.375-.898-.375-2.023-.563-3.374-.563-2.063 0-3.809.493-5.234 1.47-1.418.968-2.5 2.273-3.25 3.905-.75 1.625-1.125 3.47-1.125 5.532 0 2.023.375 3.851 1.125 5.484.75 1.625 1.832 2.93 3.25 3.906 1.425.969 3.156 1.453 5.187 1.453 1.383 0 2.535-.195 3.453-.593.914-.395 1.664-.875 2.25-1.438a20.012 20.012 0 0 0 1.438-1.516Zm29.507-18.328c-2.625 0-4.711.84-6.25 2.516-1.531 1.668-2.45 3.715-2.75 6.14h18.281c-.305-2.656-1.309-4.757-3.016-6.312-1.71-1.562-3.796-2.344-6.265-2.344Zm7.484 18.89c.258-.257.535-.491.828-.702.301-.207.676-.313 1.125-.313.645 0 1.192.23 1.64.688.446.449.673.953.673 1.515 0 .782-.48 1.684-1.438 2.704-.96 1.011-2.281 1.902-3.968 2.671-1.68.758-3.606 1.141-5.782 1.141-2.699 0-5.156-.664-7.375-1.984-2.21-1.332-3.96-3.18-5.25-5.547-1.293-2.363-1.937-5.063-1.937-8.094 0-2.738.55-5.285 1.656-7.64 1.102-2.364 2.71-4.274 4.828-5.735 2.125-1.469 4.664-2.203 7.625-2.203 3 0 5.547.727 7.64 2.172 2.102 1.437 3.723 3.351 4.86 5.734 1.145 2.375 1.719 4.969 1.719 7.781 0 .45-.164.825-.484 1.125a1.574 1.574 0 0 1-1.141.454h-21.703a12.537 12.537 0 0 0 1.437 4.609 8.802 8.802 0 0 0 3.235 3.406c1.382.844 3.07 1.266 5.062 1.266 1.875 0 3.305-.336 4.297-1.016.988-.676 1.805-1.351 2.453-2.031Zm0 0"/><g clip-path="url(#a)"><path fill="#fff" fill-rule="evenodd" d="m131.523 175.676-2.011-2.586.172-2.242 1.84 3.664Zm-8.632-9.137c-.344-4.613.64-9.312 2.949-13.922 2.433 4.653 3.418 9.61 2.945 14.738l-.555 5.606h-1.75v-4.137c0-.347-.3-.648-.597-.648-.344 0-.645.3-.645.648v4.137h-1.793Zm-2.567 7.973 1.668-3.403.172 2.196-1.84 2.37Zm12.395-.43-2.778-5.605.086-.989c.555-5.648-.644-11.12-3.464-16.293l-.168-.257c-.13-.22-.344-.391-.555-.391h-.043c-.215 0-.43.172-.559.39l-.468.989c-2.477 4.87-3.504 9.828-3.122 14.699l.172 2.07-2.691 5.387c-.086.086-.086.172-.086.3v3.15c0 .257.172.515.43.6.043.044.125.044.21.044a.672.672 0 0 0 .516-.258l2.864-3.664h.765v.648c0 .344.3.645.602.645h.808v1.984c0 .344.301.645.645.645.297 0 .597-.301.597-.645v-1.984h.81c.343 0 .6-.3.6-.645v-.648h.895l2.906 3.664c.086.172.301.258.516.258.04 0 .082 0 .168-.043a.646.646 0 0 0 .43-.602v-3.148c0-.13 0-.215-.086-.301Zm0 0"/></g><path fill="#fff" fill-rule="evenodd" d="M125.852 158.848c.293 0 .59.257.59.597a.61.61 0 0 1-.59.598c-.336 0-.633-.258-.633-.598 0-.34.297-.597.633-.597Zm0 2.472c1.011 0 1.851-.851 1.851-1.875a1.85 1.85 0 0 0-1.851-1.875c-1.012 0-1.895.809-1.895 1.875 0 1.024.883 1.875 1.895 1.875Zm0 0"/><g clip-path="url(#b)"><path fill="#fff" fill-rule="evenodd" d="M125.922 197.887c-4.633 0-9.05-1.801-12.352-5.153-3.304-3.304-5.148-7.687-5.148-12.367 0-2.531.558-4.937 1.59-7.215a16.513 16.513 0 0 1 4.203-5.754c.383-.343.941-.343 1.285.043.344.344.3.946-.086 1.29a15.572 15.572 0 0 0-3.773 5.152 15.832 15.832 0 0 0-1.375 6.484c0 4.168 1.632 8.117 4.59 11.078 2.96 2.965 6.906 4.64 11.066 4.64 4.203 0 8.152-1.675 11.066-4.64a15.455 15.455 0 0 0 4.633-11.078c0-4.508-1.973-8.844-5.36-11.851-.386-.301-.429-.86-.085-1.246.3-.387.898-.43 1.242-.086a17.426 17.426 0 0 1 6.008 13.183c0 4.68-1.848 9.063-5.149 12.367-3.304 3.352-7.68 5.153-12.355 5.153"/></g><path fill="#fff" fill-rule="evenodd" d="M132.676 195.828c-.086 0-.172 0-.258-.043-.477-.133-.734-.652-.606-1.133.215-.652.13-1.48-.343-2.09-.477-.695-1.254-1.042-2.16-1.085-.086 0-.262.043-.348.043-.387.042-.734-.043-.906-.348-.434-.567-1.035-.871-1.727-.871-1.082 0-1.988.785-2.074 1.828a.98.98 0 0 1-.434.695 1.053 1.053 0 0 1-.82.043c-.258-.129-.563-.172-.863-.172-.907 0-1.64.262-2.117.739-.344.304-.52.738-.52 1.175a.89.89 0 0 1-.863.957c-.52 0-.95-.39-.95-.914 0-.914.387-1.828 1.036-2.523.562-.61 1.64-1.262 3.37-1.262h.044c.172 0 .386 0 .562.043.606-1.437 2.028-2.437 3.63-2.437 1.077 0 2.07.437 2.804 1.218h.176c1.511 0 2.851.653 3.629 1.829.82 1.085 1.035 2.48.601 3.699a.881.881 0 0 1-.863.61"/><path fill="#fff" fill-rule="evenodd" d="M122.922 191.8c-.434 0-.82-.257-.906-.687-.172-.773-.95-1.37-2.07-1.672a1.774 1.774 0 0 0-.821-.043.874.874 0 0 1-.777-.257c-.215-.172-.301-.473-.258-.774a2.076 2.076 0 0 0-1.555-2.277c-.648-.172-1.336 0-1.855.387-.301.257-.645.3-.993.128-.085-.042-.214-.085-.3-.128-.692-.13-1.293-.086-1.856.128a.917.917 0 0 1-1.207-.43c-.219-.429 0-.988.473-1.202.906-.43 1.941-.516 2.976-.258.086.043.133.043.22.086.859-.559 1.984-.73 3.019-.473a3.966 3.966 0 0 1 2.89 3.266c.172.043.344.043.516.086 2.547.687 3.195 2.316 3.367 3.004a.91.91 0 0 1-.648 1.117h-.215m8.297-.188h-.215c-.52-.129-.777-.64-.691-1.113.171-.598.777-2.098 3.066-2.695a.81.81 0 0 0 .344-.086c.214-1.328 1.21-2.438 2.59-2.824.906-.215 1.902-.086 2.68.386.085 0 .085 0 .128-.043a4.506 4.506 0 0 1 2.719.211c.433.215.648.774.433 1.2-.218.472-.777.687-1.21.472-.43-.215-.95-.258-1.512-.129-.086.043-.172.086-.301.13-.3.128-.648.085-.95-.13-.433-.344-.991-.472-1.51-.344a1.666 1.666 0 0 0-1.255 1.883c.043.301-.086.559-.258.774a1.32 1.32 0 0 1-.777.254c-.215-.086-.473-.043-.691 0-.907.257-1.555.73-1.727 1.414-.086.382-.473.64-.863.64m-5.109-15c-.606 0-1.169.344-1.473.907a2.205 2.205 0 0 0-.13.734c0 .52.177 2.113.563 3.71.39 1.77.782 2.548.996 2.891.22-.343.606-1.12 1.04-2.89.433-1.598.648-3.192.648-3.711 0-.258-.086-.477-.172-.691-.258-.606-.82-.95-1.473-.95Zm.128 8.504Zm-.172 1.77c-1.125 0-1.949-1.254-2.683-4.016-.434-1.812-.735-3.797-.735-4.617 0-.52.13-1.035.344-1.512.606-1.207 1.778-1.941 3.117-1.941 1.344 0 2.555.777 3.164 1.984.215.434.301.95.301 1.469 0 .82-.3 2.805-.777 4.617-.781 2.762-1.606 4.016-2.73 4.016Zm0 0"/><path fill="#e9e6e1" d="M103.56 217.241v1.329h-2.297v6.671h-1.578v-6.671h-2.313v-1.329Zm7.547 4.485v2.187h3.813v1.328h-5.39v-8h5.296v1.329h-3.719v1.875h3.25v1.28Zm13.325 3.624c-.742 0-1.39-.148-1.953-.452-.562-.301-1.008-.758-1.328-1.375-.312-.614-.469-1.375-.469-2.282 0-.894.157-1.648.47-2.265.32-.614.765-1.07 1.327-1.375.563-.313 1.211-.469 1.953-.469.77 0 1.422.152 1.954.453.539.305.925.762 1.156 1.375l-1.156.703h-.141c-.168-.414-.402-.71-.703-.89-.293-.188-.664-.282-1.11-.282-.668 0-1.187.22-1.562.657-.367.437-.547 1.136-.547 2.093 0 .95.18 1.649.547 2.094.375.438.894.656 1.562.656 1.04 0 1.676-.504 1.907-1.515h.14l1.157.61c-.22.76-.594 1.327-1.125 1.702-.524.375-1.215.563-2.079.563Zm14.372-5.093v-3.016h1.578v8h-1.578v-3.64h-3.578v3.64h-1.578v-8h1.578v3.016Zm17.926 5.093c-.575 0-1.079-.093-1.516-.28a2.287 2.287 0 0 1-1.016-.844c-.23-.375-.344-.805-.344-1.297 0-.52.13-.953.391-1.297.27-.352.664-.64 1.187-.86l.016-.124a3.152 3.152 0 0 1-.516-.813 2.1 2.1 0 0 1-.156-.828c0-.363.082-.687.25-.969.176-.289.43-.515.766-.672.332-.156.726-.234 1.187-.234.438 0 .813.074 1.125.219.313.148.551.351.72.61.163.26.25.558.25.89 0 .46-.138.855-.407 1.187-.274.336-.695.61-1.266.828l-.015.125 1.484 1.954a2.57 2.57 0 0 0 .172-.657c.039-.25.062-.531.062-.843l-.015-.266h1.281c0 1.117-.219 2.023-.656 2.719.093.074.172.125.234.156a.69.69 0 0 0 .219.031h.187a.642.642 0 0 0 .157-.047l.093.032.188 1.093a.715.715 0 0 1-.297.11 1.743 1.743 0 0 1-.422.047 1.94 1.94 0 0 1-.719-.125 1.864 1.864 0 0 1-.562-.422h-.125c-.45.386-1.094.578-1.938.578Zm0-5.234c.343-.164.585-.332.734-.5a.952.952 0 0 0 .234-.656c0-.226-.07-.398-.203-.515-.125-.125-.305-.188-.531-.188a.782.782 0 0 0-.547.203c-.137.125-.203.305-.203.531 0 .18.035.344.11.5.07.149.206.356.405.625Zm.202 3.938c.344 0 .641-.067.891-.203l-1.781-2.266a1.352 1.352 0 0 0-.469.485c-.094.187-.14.414-.14.671 0 .262.054.493.171.688.125.2.301.355.532.469.226.105.492.156.796.156Zm18.528 1.187h-1.438v-8h2.062l2.016 5.891h.125l2.015-5.89h2.016v8h-1.5v-5.282l-.14-.031-1.844 5.312h-1.328l-1.844-5.312-.14.031Zm20.21 0h-1.657l-.61-1.843h-3.062l-.594 1.843h-1.625l2.766-8h2.016Zm-3.876-6.328-1.031 3.157h2.203l-1.031-3.157Zm9.745 6.328v-8h3.203c.82 0 1.441.196 1.859.579.426.375.64.902.64 1.578 0 .48-.124.875-.374 1.187-.243.313-.606.555-1.094.719v.11c.25.105.453.265.61.484.156.218.3.539.437.953l.812 2.39h-1.625l-.797-2.39a1.89 1.89 0 0 0-.265-.563.751.751 0 0 0-.375-.281 1.664 1.664 0 0 0-.61-.094h-.843v3.328Zm3.015-4.578c.758 0 1.14-.36 1.14-1.078 0-.726-.382-1.094-1.14-1.094h-1.437v2.172Zm9.161 4.578v-8h1.579v3.266h.171l2.672-3.266h1.61v.141l-2.938 3.64 3.25 4.079v.14h-1.781l-2.813-3.453h-.171v3.453Zm13.668-3.515v2.187h3.813v1.328h-5.391v-8h5.297v1.329h-3.719v1.875h3.25v1.28Zm15.357-4.485v1.329h-2.298v6.671h-1.578v-6.671h-2.312v-1.329Zm7.547 8h-1.578v-8h1.578Zm8.316 0h-1.531v-8h1.796l3.22 5.157.14-.016v-5.14h1.515v8h-1.609l-3.406-5.5-.125.015Zm14.781.109c-.668 0-1.246-.148-1.735-.452-.492-.301-.87-.758-1.14-1.375-.262-.614-.39-1.375-.39-2.282 0-.906.155-1.664.468-2.28a3.207 3.207 0 0 1 1.328-1.376c.563-.3 1.219-.453 1.969-.453.758 0 1.41.14 1.953.422.539.281.922.703 1.14 1.266l-1.156.703h-.14c-.157-.364-.387-.625-.688-.782-.305-.164-.672-.25-1.11-.25-.687 0-1.214.22-1.577.657-.368.437-.547 1.136-.547 2.093 0 .97.164 1.672.5 2.11.344.437.847.656 1.515.656.57 0 .993-.129 1.266-.39.281-.258.422-.645.422-1.157v-.344h-1.89v-1.296h3.452v4.421h-1.5v-1.078l-.125-.015a1.823 1.823 0 0 1-.734.89c-.336.207-.762.313-1.281.313Zm0 0"/></svg>